REM DIRINDEX 1\2,1\3,1\4,1\5
REM DIRNAME folder01,folder02,folder03,folder04,folder05
TITLE ""
FILE "P1Q_t_0142-0151.mp3" MP3
  TRACK 01 AUDIO
    TITLE "3:cjc005_1327"
    INDEX 01 00:00:00
  TRACK 02 AUDIO
    TITLE "0:"
    INDEX 01 00:01:03
  TRACK 03 AUDIO
    TITLE "4:cjc005_1328"
    INDEX 01 00:01:28
  TRACK 04 AUDIO
    TITLE "0:"
    INDEX 01 00:02:63
  TRACK 05 AUDIO
    TITLE "5:cjc005_1329"
    INDEX 01 00:03:08
  TRACK 06 AUDIO
    TITLE "0:"
    INDEX 01 00:07:33
  TRACK 07 AUDIO
    TITLE "3:cjc005_1330"
    INDEX 01 00:08:13
  TRACK 08 AUDIO
    TITLE "0:"
    INDEX 01 00:09:36
  TRACK 09 AUDIO
    TITLE "4:cjc005_1331"
    INDEX 01 00:09:53
  TRACK 10 AUDIO
    TITLE "0:"
    INDEX 01 00:10:66
  TRACK 11 AUDIO
    TITLE "5:cjc005_1332"
    INDEX 01 00:11:15
  TRACK 12 AUDIO
    TITLE "0:"
    INDEX 01 00:15:15
  TRACK 13 AUDIO
    TITLE "3:cjc005_1333"
    INDEX 01 00:15:66
  TRACK 14 AUDIO
    TITLE "0:"
    INDEX 01 00:17:06
  TRACK 15 AUDIO
    TITLE "4:cjc005_1334"
    INDEX 01 00:17:33
  TRACK 16 AUDIO
    TITLE "0:"
    INDEX 01 00:18:48
  TRACK 17 AUDIO
    TITLE "5:cjc005_1335"
    INDEX 01 00:18:70
  TRACK 18 AUDIO
    TITLE "0:"
    INDEX 01 00:22:19
  TRACK 19 AUDIO
    TITLE "3:cjc005_1336"
    INDEX 01 00:22:68
  TRACK 20 AUDIO
    TITLE "0:"
    INDEX 01 00:24:25
  TRACK 21 AUDIO
    TITLE "4:cjc005_1337"
    INDEX 01 00:24:51
  TRACK 22 AUDIO
    TITLE "0:"
    INDEX 01 00:25:60
  TRACK 23 AUDIO
    TITLE "5:cjc005_1338"
    INDEX 01 00:26:09
  TRACK 24 AUDIO
    TITLE "0:"
    INDEX 01 00:30:48
  TRACK 25 AUDIO
    TITLE "3:cjc005_1339"
    INDEX 01 00:31:26
  TRACK 26 AUDIO
    TITLE "0:"
    INDEX 01 00:32:33
  TRACK 27 AUDIO
    TITLE "4:cjc005_1340"
    INDEX 01 00:32:60
  TRACK 28 AUDIO
    TITLE "0:"
    INDEX 01 00:33:69
  TRACK 29 AUDIO
    TITLE "5:cjc005_1341"
    INDEX 01 00:34:16
  TRACK 30 AUDIO
    TITLE "0:"
    INDEX 01 00:39:49
  TRACK 31 AUDIO
    TITLE "3:cjc005_1342"
    INDEX 01 00:40:30
  TRACK 32 AUDIO
    TITLE "0:"
    INDEX 01 00:41:28
  TRACK 33 AUDIO
    TITLE "4:cjc005_1343"
    INDEX 01 00:41:53
  TRACK 34 AUDIO
    TITLE "0:"
    INDEX 01 00:42:45
  TRACK 35 AUDIO
    TITLE "5:cjc005_1344"
    INDEX 01 00:42:65
  TRACK 36 AUDIO
    TITLE "0:"
    INDEX 01 00:46:06
  TRACK 37 AUDIO
    TITLE "3:cjc005_1345"
    INDEX 01 00:46:54
  TRACK 38 AUDIO
    TITLE "0:"
    INDEX 01 00:47:72
  TRACK 39 AUDIO
    TITLE "4:cjc005_1346"
    INDEX 01 00:48:16
  TRACK 40 AUDIO
    TITLE "0:"
    INDEX 01 00:49:51
  TRACK 41 AUDIO
    TITLE "5:cjc005_1347"
    INDEX 01 00:50:01
  TRACK 42 AUDIO
    TITLE "0:"
    INDEX 01 00:54:21
  TRACK 43 AUDIO
    TITLE "3:cjc005_1348"
    INDEX 01 00:55:08
  TRACK 44 AUDIO
    TITLE "0:"
    INDEX 01 00:56:12
  TRACK 45 AUDIO
    TITLE "4:cjc005_1349"
    INDEX 01 00:56:43
  TRACK 46 AUDIO
    TITLE "0:"
    INDEX 01 00:57:52
  TRACK 47 AUDIO
    TITLE "5:cjc005_1350"
    INDEX 01 00:58:01
  TRACK 48 AUDIO
    TITLE "0:"
    INDEX 01 01:01:03
  TRACK 49 AUDIO
    TITLE "3:cjc005_1351"
    INDEX 01 01:01:56
  TRACK 50 AUDIO
    TITLE "0:"
    INDEX 01 01:02:69
  TRACK 51 AUDIO
    TITLE "4:cjc005_1352"
    INDEX 01 01:03:24
  TRACK 52 AUDIO
    TITLE "0:"
    INDEX 01 01:04:60
  TRACK 53 AUDIO
    TITLE "5:cjc005_1353"
    INDEX 01 01:05:09
  TRACK 54 AUDIO
    TITLE "0:"
    INDEX 01 01:10:04
  TRACK 55 AUDIO
    TITLE "3:cjc005_1354"
    INDEX 01 01:10:51
  TRACK 56 AUDIO
    TITLE "0:"
    INDEX 01 01:12:09
  TRACK 57 AUDIO
    TITLE "4:cjc005_1355"
    INDEX 01 01:12:28
  TRACK 58 AUDIO
    TITLE "0:"
    INDEX 01 01:13:61
  TRACK 59 AUDIO
    TITLE "5:cjc005_1356"
    INDEX 01 01:14:08
  TRACK 60 AUDIO
    TITLE "0:"
    INDEX 01 01:18:37
